<svg width="40" height="40" viewBox="0 0 40 40" fill="none" xmlns="http://www.w3.org/2000/svg">
<path d="M22.7031 38.9523C21.82 39.0771 20.9175 39.1416 20 39.1416C19.0376 39.1416 18.0917 39.0706 17.1674 38.9335V39.1416H14.1854C16.0254 39.6998 17.9777 40 20 40C22.0223 40 23.9746 39.6998 25.8146 39.1416H23.9114C23.4959 39.1416 23.0888 39.0763 22.7031 38.9523Z" fill="black"/>
<path d="M15.4772 1.39582C16.9273 1.04453 18.4419 0.858369 20 0.858369C30.5716 0.858369 39.1416 9.42837 39.1416 20C39.1416 26.215 36.1797 31.7382 31.5903 35.235L32.1023 35.9241C36.9019 32.2708 40 26.4972 40 20C40 8.95431 31.0457 0 20 0C18.0117 0 16.0911 0.290155 14.2783 0.830434C14.7126 0.951118 15.1169 1.14418 15.4772 1.39582Z" fill="black"/>
<path d="M6.69528 6.2382V5.06706C2.58701 8.72997 0 14.0629 0 20C0 25.9371 2.58701 31.27 6.69528 34.9329V33.7618C3.09614 30.2815 0.858369 25.4021 0.858369 20C0.858369 14.5979 3.09614 9.71853 6.69528 6.2382Z" fill="black"/>
<path d="M13.2193 1.88843H7.89746V35.1931C7.89746 36.7102 9.12724 37.9399 10.6442 37.9399H15.9661V28.7114L21.6689 36.7787C22.1837 37.5069 23.02 37.9399 23.9118 37.9399H32.1035L23.1746 25.9228L23.1764 25.9228L21.6522 23.6364L29.7859 15.1073H28.0691L15.9661 27.2926V4.63521C15.9661 3.1182 14.7364 1.88843 13.2193 1.88843Z" fill="black"/>
</svg>
