<svg width="200" height="200" viewBox="0 0 200 200" fill="none" xmlns="http://www.w3.org/2000/svg">
<path d="M113.515 194.761C109.1 195.385 104.588 195.708 100 195.708C95.1878 195.708 90.4585 195.353 85.8369 194.667V195.708H70.927C80.1271 198.499 89.8883 200 100 200C110.112 200 119.873 198.499 129.073 195.708H119.557C117.479 195.708 115.444 195.381 113.515 194.761Z" fill="white"/>
<path d="M77.3858 6.97911C84.6364 5.22265 92.2095 4.29185 100 4.29185C152.858 4.29185 195.708 47.1418 195.708 100C195.708 131.075 180.898 158.691 157.952 176.175L160.512 179.62C184.509 161.354 200 132.486 200 100C200 44.7715 155.228 0 100 0C90.0583 0 80.4554 1.45078 71.3915 4.15217C73.5632 4.75559 75.5844 5.72092 77.3858 6.97911Z" fill="white"/>
<path d="M33.4764 31.191V25.3353C12.9351 43.6499 0 70.3144 0 100C0 129.686 12.9351 156.35 33.4764 174.665V168.809C15.4807 151.407 4.29185 127.01 4.29185 100C4.29185 72.9897 15.4807 48.5926 33.4764 31.191Z" fill="white"/>
<path d="M66.0938 9.44214H39.4844V175.966C39.4844 183.551 45.6333 189.7 53.2183 189.7H79.8277V143.557L108.341 183.893C110.915 187.535 115.097 189.7 119.556 189.7H160.514L115.87 129.614L115.879 129.614L108.258 118.182L148.926 75.5366H140.343L79.8277 136.463V23.176C79.8277 15.591 73.6788 9.44214 66.0938 9.44214Z" fill="white"/>
</svg>
